<svg width="100" height="100" viewBox="0 0 100 100" fill="none" xmlns="http://www.w3.org/2000/svg">
<rect width="100" height="100" rx="50" fill="white"/>
<path d="M79 48.3661C79 48.5998 79 48.8076 78.9736 49.0414C78.9736 49.1979 78.9469 49.3551 78.9326 49.5109C78.9265 49.5774 78.9208 49.6442 78.9208 49.7166C78.9208 49.7945 78.8944 49.8984 78.8944 49.9763C78.8944 50.0592 78.8837 50.1421 78.869 50.225C78.8524 50.319 78.8421 50.4143 78.8284 50.5088C78.8147 50.6033 78.8046 50.6987 78.7934 50.7935C78.7849 50.8656 78.7786 50.9355 78.7624 51.0152C78.736 51.1191 78.736 51.197 78.7096 51.3009C78.6832 51.4048 78.6568 51.5347 78.6304 51.6386C78.5828 51.8262 78.5535 52.0191 78.5058 52.2067C78.5034 52.2165 78.5009 52.2262 78.4984 52.2359C78.472 52.3398 78.4456 52.4177 78.4192 52.5216C78.3928 52.6255 78.3664 52.7294 78.34 52.8333C78.3136 52.9371 78.2873 53.0151 78.2609 53.119C78.2345 53.2228 78.1817 53.3267 78.1553 53.4046C78.1289 53.5085 78.0761 53.5865 78.0497 53.6903C78.0233 53.7942 77.9705 53.8721 77.9441 53.976C77.9177 54.0799 77.8649 54.1578 77.8385 54.2617C77.8121 54.3396 77.7593 54.4435 77.7065 54.5214C77.6537 54.6253 77.6273 54.7032 77.5745 54.8071C77.5217 54.885 77.4953 54.963 77.4425 55.0409C77.3897 55.1448 77.3369 55.2227 77.2841 55.3266C77.1924 55.4619 77.1112 55.6069 77.0314 55.7496C77.0189 55.7721 77.0063 55.7953 76.9937 55.82C76.9673 55.872 76.9145 55.9499 76.8881 56.0018C76.8353 56.1057 76.7562 56.2096 76.677 56.3135C76.4683 56.5957 76.2597 56.878 76.0256 57.1602C76.0201 57.1669 76.017 57.1753 76.017 57.184C76.017 57.1921 76.0143 57.2001 76.0093 57.2065C75.9311 57.3071 75.8288 57.4076 75.7266 57.5082C75.6566 57.5771 75.5907 57.6537 75.5212 57.7231C75.486 57.7583 75.4498 57.7927 75.4158 57.829C75.3746 57.873 75.3355 57.919 75.2926 57.9612C75.2723 57.9812 75.2521 58.001 75.2251 58.0277C75.1641 58.0876 75.0875 58.163 75.0073 58.23C74.96 58.2696 74.9126 58.3091 74.8687 58.3523C74.8247 58.3955 74.7774 58.4352 74.7296 58.4741C74.6807 58.5138 74.6354 58.5535 74.5866 58.5932C74.538 58.6327 74.4757 58.6686 74.4285 58.7097C74.3911 58.7423 74.3602 58.7696 74.3204 58.7992C74.272 58.8353 74.2246 58.8713 74.1809 58.9074C74.1186 58.9589 74.0537 59.01 73.988 59.0572C73.9515 59.0834 73.9134 59.106 73.877 59.1326C73.7896 59.1965 73.7022 59.2573 73.6148 59.3003C73.6079 59.3036 73.6011 59.307 73.5942 59.3104C73.4945 59.3603 73.4116 59.438 73.3167 59.4965C73.2819 59.518 73.2471 59.5391 73.2122 59.5618C73.163 59.5939 73.1131 59.625 73.0604 59.6509C73.0077 59.6768 72.958 59.7084 72.9075 59.7383C72.8182 59.7909 72.7202 59.8313 72.638 59.8717C72.547 59.9165 72.4567 59.9676 72.3672 60.0155C72.292 60.0558 72.2194 60.0987 72.1365 60.1314C72.0837 60.1574 72.0573 60.1574 72.0045 60.1833C71.8843 60.2306 71.7641 60.2779 71.6439 60.3448C71.6202 60.358 71.5995 60.3754 71.5741 60.3848C71.526 60.4027 71.4775 60.4253 71.429 60.4419C71.3018 60.4856 71.1873 60.5292 71.0541 60.5729L71.0013 60.5989C69.7078 61.0404 68.3087 61.2741 66.804 61.2741C62.5539 61.2741 58.2774 59.1445 52.1002 53.5605C51.9154 53.3787 51.889 53.093 52.0738 52.9112L53.9745 51.0412C54.1593 50.8594 54.4233 50.8594 54.6081 51.0412C59.5445 55.4824 63.3459 57.5602 66.6984 57.5602C67.1736 57.5602 67.6488 57.5342 68.0975 57.4563C68.5949 57.379 69.0923 57.2506 69.564 57.0965C69.5719 57.094 69.5801 57.0927 69.5883 57.0927C69.5975 57.0927 69.6067 57.091 69.6153 57.0879C69.8232 57.0115 70.0554 56.9347 70.2622 56.8329L70.315 56.807C70.5262 56.7031 70.7374 56.5992 70.9222 56.4953L70.9749 56.4693C71.1861 56.3654 71.3709 56.2356 71.5557 56.1057C71.9517 55.82 72.2949 55.5343 72.6116 55.1707L72.638 55.1448C72.7964 54.9889 72.9284 54.8071 73.0868 54.6253L73.1396 54.5474C73.2716 54.3656 73.4036 54.1838 73.5356 54.002L73.5884 53.9241C73.7204 53.7423 73.826 53.5345 73.9315 53.3267L73.9579 53.2748C74.1691 52.8592 74.3803 52.3917 74.5123 51.9242L74.5387 51.8463C74.612 51.6301 74.6627 51.4138 74.7116 51.1975C74.7195 51.1627 74.7252 51.127 74.7367 51.0931C74.7482 51.0593 74.7539 51.0236 74.7617 50.9887C74.8104 50.7723 74.8575 50.5543 74.8819 50.314C74.8819 50.2252 74.9128 50.1388 74.9221 50.0505C74.9439 49.8422 74.9657 49.6454 74.9875 49.4309C74.9875 49.405 74.9875 49.379 74.9875 49.327C75.0139 49.0673 75.0139 48.7816 75.0139 48.4959C75.0139 43.7691 72.3741 40.2369 68.5991 39.4317C68.0711 39.3279 67.4904 39.2499 66.9096 39.2499C64.4282 39.2499 61.9204 40.1849 58.4622 42.8081C56.6407 44.1846 54.5289 46.0546 51.9946 48.5479L51.9682 48.5739L51.9418 48.5998C51.6779 48.8855 49.7244 50.8854 49.4604 51.1451C43.0984 57.4043 38.6635 60.3132 34.5454 61.0923C33.7799 61.2222 33.0143 61.3001 32.2752 61.3001C31.6152 61.3001 30.9553 61.2482 30.3217 61.1703C24.1973 60.2872 20 55.3006 20 48.4959C20 40.9121 25.1213 35.51 32.1696 35.51C33.3047 35.51 34.4398 35.6658 35.5749 36.0034C36.1293 36.1593 36.6837 35.8476 36.8421 35.3022C37.5812 32.8349 39.0595 30.7831 41.0922 29.3027C41.1714 29.2507 41.1978 29.1468 41.1714 29.0689L40.4058 27.0951C40.3491 26.9835 40.2128 26.9494 40.095 26.9072C39.0185 26.5217 38.1815 25.5486 38.0564 24.342C37.898 22.6798 39.1387 21.1735 40.8282 21.0176C42.5177 20.8618 44.0488 22.0825 44.2072 23.7447C44.2864 24.4459 44.1016 25.1212 43.732 25.6666C43.7056 25.7185 43.6792 25.7965 43.7056 25.8484L44.2864 27.4067C44.3392 27.5106 44.4447 27.5626 44.5503 27.5366C46.0022 27.0691 47.5861 26.8094 49.302 26.8094C51.0707 26.8094 52.7338 27.0691 54.2385 27.5626C54.3441 27.5885 54.4761 27.5366 54.5025 27.4327L55.1096 25.8484C55.1687 25.7322 55.0464 25.6119 54.9841 25.4973C54.7051 24.9844 54.5606 24.375 54.6081 23.7447C54.7664 22.0825 56.2975 20.8358 57.987 21.0176C59.6765 21.1735 60.9436 22.6798 60.7588 24.342C60.6337 25.5487 59.8204 26.5218 58.7238 26.9073C58.6037 26.9495 58.4503 26.9745 58.4094 27.0951L57.6438 29.1209C57.6175 29.1988 57.6438 29.3027 57.723 29.3546C58.9374 30.2117 59.9405 31.2765 60.706 32.4972C61.0228 33.0167 60.838 33.7179 60.2837 33.9517C59.7821 34.1854 59.2541 34.4451 58.7262 34.7568C58.2774 35.0165 57.6438 34.8866 57.3535 34.4451C55.7696 32.1856 52.8658 30.7311 49.2756 30.7311C44.1016 30.7311 40.5114 33.7439 40.1154 38.1331C40.0626 40.133 40.6962 42.0549 41.013 42.912C41.0658 43.0678 41.0394 43.2756 40.8018 43.0938C39.9834 42.5224 38.1356 41.2498 36.8157 40.4446L36.7365 40.3927C36.6045 40.3148 36.4725 40.2628 36.3405 40.2109C34.783 39.5097 33.4103 39.224 32.0112 39.224H31.9848C29.3758 39.224 27.1614 40.4405 25.7357 42.4602C25.731 42.4668 25.7284 42.4748 25.7284 42.483C25.7284 42.4917 25.7256 42.5002 25.7203 42.5071C25.649 42.6006 25.5785 42.6948 25.528 42.8087C25.5206 42.8253 25.5105 42.8406 25.4976 42.8534C25.4931 42.8578 25.4889 42.8626 25.4851 42.8676C25.4118 42.9653 25.3607 43.0636 25.2879 43.184C25.2824 43.1931 25.2758 43.2014 25.2683 43.2089C25.2583 43.2187 25.2501 43.23 25.2436 43.2424C25.1912 43.3428 25.1181 43.4635 25.0685 43.5613L25.0421 43.6132C24.9893 43.7171 24.9365 43.847 24.8837 43.9509L24.8573 44.0028C24.8106 44.0947 24.7638 44.207 24.7171 44.3036C24.7052 44.3282 24.6945 44.3535 24.6857 44.3794C24.6769 44.4053 24.6659 44.4305 24.655 44.4556C24.6205 44.5353 24.5967 44.6256 24.5632 44.7064C24.5494 44.7395 24.5362 44.7746 24.5213 44.8072C24.5134 44.8244 24.5118 44.8432 24.5067 44.8614C24.4848 44.9388 24.4517 45.0272 24.4268 45.1075C24.4137 45.1498 24.4095 45.1946 24.3953 45.2365C24.3811 45.2784 24.3766 45.3231 24.3657 45.3659C24.3502 45.4268 24.3348 45.4877 24.3193 45.5485C24.3084 45.5914 24.3039 45.6361 24.2897 45.678C24.2755 45.7199 24.2709 45.7646 24.2602 45.8075C24.2433 45.8747 24.2264 45.9441 24.2095 46.0225C24.2012 46.0611 24.1968 46.1098 24.1863 46.1477C24.1731 46.1949 24.1645 46.2343 24.1531 46.2819C24.1338 46.362 24.1181 46.442 24.1181 46.5221C24.1181 46.6271 24.0786 46.7295 24.0653 46.8337C24.0614 46.865 24.0574 46.8962 24.052 46.9274C24.0448 46.969 24.0399 47.0079 24.0379 47.0501C24.034 47.13 24.0135 47.2133 24.0034 47.2927C23.9958 47.3532 23.9861 47.4099 23.9861 47.4571C23.9861 47.4758 23.9861 47.4946 23.9858 47.513C23.9837 47.6151 23.9646 47.7183 23.9542 47.8199C23.947 47.8903 23.9333 47.9607 23.9333 48.0314C23.9333 48.1505 23.9333 48.266 23.9333 48.3661V48.418C23.9333 53.8202 27.3651 57.4822 32.3016 57.4822C36.2085 57.4822 40.749 54.7292 46.979 48.5219C47.3485 48.1323 49.038 46.3922 49.4076 46.0546C56.8519 38.4708 61.762 35.458 66.7776 35.458C73.9843 35.3801 79 40.7823 79 48.3661ZM63.9887 64.3524C64.1464 64.5654 64.1419 64.9062 63.953 65.092L50.0148 78.8052C49.7508 79.0649 49.3284 79.0649 49.0644 78.8052L35.2694 65.207C35.2619 65.1996 35.2545 65.1921 35.246 65.1859C35.2358 65.1786 35.2206 65.1699 35.2054 65.1699C35.1885 65.1699 35.1725 65.1628 35.1582 65.1536C35.1528 65.1501 35.1477 65.1472 35.1432 65.1443C35.1252 65.1326 35.1194 65.1087 35.1089 65.0899C35.0676 65.016 35.047 64.9241 35.047 64.8323V64.8063C35.047 64.7804 35.047 64.7544 35.047 64.7284C35.047 64.7284 35.049 64.6939 35.0539 64.6774C35.0822 64.582 35.1347 64.4884 35.2318 64.4168C35.6013 64.1311 36.1029 63.7675 36.6837 63.4038C37.502 62.8584 38.5315 62.2611 39.7459 61.6897C42.1745 60.5729 45.3687 59.56 49.17 59.4821C49.3284 59.4821 49.4868 59.4821 49.6716 59.4821C52.6018 59.4821 55.1888 60.0275 57.3271 60.7807C59.4917 61.5339 61.234 62.4689 62.4747 63.274C63.0555 63.6376 63.5307 63.9752 63.9002 64.2609C63.9333 64.2869 63.963 64.3179 63.9887 64.3524ZM42.9136 64.157C42.0689 64.4687 41.3034 64.8063 40.617 65.144C40.485 65.1959 40.4586 65.3777 40.5642 65.4816L43.0984 67.9749C43.1776 68.0528 43.2832 68.0528 43.3624 68.0009C43.6792 67.7931 44.0488 67.5853 44.5239 67.3516C45.7119 66.7802 47.4013 66.2348 49.4868 66.2348C49.6716 66.2348 49.8564 66.2348 50.0148 66.2348C51.6779 66.3127 53.0506 66.7023 54.0801 67.1698C54.74 67.4555 55.2416 67.7671 55.6376 68.0269C55.7168 68.0788 55.8224 68.0788 55.9016 68.0009L58.5678 65.3777C58.6734 65.2738 58.647 65.118 58.515 65.0401C58.3038 64.9362 58.0662 64.8323 57.8286 64.7284C55.6904 63.7675 52.9186 62.9363 49.6188 62.9363C49.4868 62.9363 49.3548 62.9363 49.1964 62.9363C46.8206 63.0143 44.7087 63.5077 42.9136 64.157ZM50.0148 73.8446L53.0242 70.8838C53.1222 70.7874 53.1065 70.6462 52.9982 70.5641C52.9814 70.5513 52.9588 70.5467 52.9437 70.5319C52.9303 70.5188 52.9101 70.5158 52.8934 70.5074C52.1816 70.1487 51.1608 69.8183 49.8564 69.767C49.7244 69.767 49.5924 69.767 49.4868 69.767C48.0349 69.767 46.8998 70.1306 46.0814 70.5202C45.9494 70.5721 45.923 70.7539 46.0286 70.8578L49.0908 73.8705C49.3284 74.1043 49.7508 74.1043 50.0148 73.8446Z" fill="url(#paint0_linear_7171_2)"/>
<defs>
<linearGradient id="paint0_linear_7171_2" x1="19.0923" y1="79" x2="79" y2="79" gradientUnits="userSpaceOnUse">
<stop stop-color="#FB9F30"/>
<stop offset="0.492708" stop-color="#DE2E70"/>
<stop offset="1" stop-color="#634AD6"/>
</linearGradient>
</defs>
</svg>
