<svg width="114" height="36" viewBox="0 0 114 36" fill="none" xmlns="http://www.w3.org/2000/svg">
<g filter="url(#filter0_d_3_205)">
<path fill-rule="evenodd" clip-rule="evenodd" d="M110.839 20.1871C110.99 20.0906 111.133 19.9789 111.266 19.8469C111.769 19.3441 112.012 18.6823 112 18.0238C112.012 17.3653 111.769 16.7018 111.266 16.199C111.134 16.0687 110.99 15.957 110.839 15.8605L100.704 5.73803C100.212 5.24544 99.5658 5 98.9214 5C98.277 5 97.6312 5.24544 97.1385 5.73803C96.1538 6.7215 96.1538 8.31604 97.1385 9.29951L103.247 15.4001H88.6C87.1641 15.4001 86 16.5647 86 18.0001C86 19.4355 87.1641 20.6001 88.6 20.6001H103.292L97.1834 26.7007C96.1987 27.6859 96.1987 29.2804 97.1834 30.2622C98.1682 31.2457 99.7651 31.2457 100.75 30.2639L110.839 20.1871Z" fill="white"/>
</g>
<defs>
<filter id="filter0_d_3_205" x="84" y="4" width="30" height="30" filterUnits="userSpaceOnUse" color-interpolation-filters="sRGB">
<feFlood flood-opacity="0" result="BackgroundImageFix"/>
<feColorMatrix in="SourceAlpha" type="matrix" values="0 0 0 0 0 0 0 0 0 0 0 0 0 0 0 0 0 0 127 0" result="hardAlpha"/>
<feOffset dy="1"/>
<feGaussianBlur stdDeviation="1"/>
<feColorMatrix type="matrix" values="0 0 0 0 0 0 0 0 0 0 0 0 0 0 0 0 0 0 0.25 0"/>
<feBlend mode="normal" in2="BackgroundImageFix" result="effect1_dropShadow_3_205"/>
<feBlend mode="normal" in="SourceGraphic" in2="effect1_dropShadow_3_205" result="shape"/>
</filter>
</defs>
</svg>
